<svg width="200" height="184" viewBox="0 0 200 184" fill="none" xmlns="http://www.w3.org/2000/svg">
<path fill-rule="evenodd" clip-rule="evenodd" d="M139.14 34.9329C139.812 35.5492 140.694 35.8915 141.609 35.8915H194.545C197.558 35.8915 200 38.3139 200 41.3019V61.1398C200 90.2768 170.328 119.313 139.85 124.026C139.713 124.047 139.589 124.097 139.482 124.166L173.945 184H149.015L102.703 103.592C101.307 101.169 97.7835 101.169 96.3876 103.592L50.0755 184H25.1456L59.5313 124.299C59.401 124.179 59.2341 124.094 59.0403 124.065C28.5151 119.474 0.00014772 90.3567 0 61.1398V41.3019C0.000123825 38.3139 2.44216 35.8915 5.45455 35.8915H57.647C58.5622 35.8915 59.4437 35.5492 60.1157 34.9329L97.1593 0.958595C98.5529 -0.319532 100.703 -0.319531 102.097 0.958596L139.14 34.9329ZM64.2412 45.7528C63.5692 46.369 62.6877 46.7113 61.7725 46.7113H60.0355C60.0237 46.7114 60.0118 46.7122 60 46.7122H41.938C42.925 69.1472 49.995 88.8482 60.3374 102.954C62.455 105.842 64.6829 108.465 66.9984 110.819C67.0614 110.883 67.1323 110.934 67.2061 110.974C67.2061 110.974 89.643 72.0694 97.1758 59.494C98.3661 57.5068 100.723 57.5064 101.913 59.4937C109.497 72.1591 132.232 111.577 132.232 111.577C132.259 111.556 132.287 111.533 132.313 111.508C134.876 108.979 137.336 106.127 139.663 102.954C150.005 88.8482 157.075 69.1472 158.062 46.7122H140C139.988 46.7122 139.976 46.7114 139.964 46.7113H137.484C136.568 46.7113 135.687 46.369 135.015 45.7528L102.097 15.5623C100.703 14.2842 98.5529 14.2842 97.1593 15.5623L64.2412 45.7528ZM10.9091 61.1398C10.9092 81.0313 28.078 102.851 48.1818 109.833C38.0903 93.7628 28.5538 69.5118 27.4103 46.7122H10.9091V61.1398ZM172.576 46.7122C171.324 69.7463 162.367 93.7567 152.273 109.833C172.376 102.85 189.091 81.0307 189.091 61.1398V46.7122H172.576Z" fill="#E09400"/>
</svg>
